<svg xmlns="http://www.w3.org/2000/svg" xmlns:xlink="http://www.w3.org/1999/xlink" version="1.1" width="918.425pt" height="436.535pt" viewBox="0 0 918.425 436.535">
<defs>
<clipPath id="clip_0">
<path transform="matrix(1,0,0,-1,0,436.535)" d="M0 0H918.425V436.535H0Z"/>
</clipPath>
</defs>
<g clip-path="url(#clip_0)">
<path transform="matrix(1,0,0,-1,239.7355,199.1932)" d="M0 0V61.312C0 61.397-.011 61.48-.032 61.561-.057 61.664-.099 61.763-.156 61.855L-14.235 84.423C-14.419 84.715-14.739 84.893-15.084 84.893H-45.617C-87.978 84.407-122.92 50.689-125.205 8.074-125.219 7.799-125.121 7.531-124.932 7.332-124.743 7.133-124.48 7.02-124.206 7.02H-101.777C-101.254 7.02-100.819 7.423-100.78 7.945-98.581 37.303-73.963 60.299-44.738 60.299-44.718 60.3-24.644 60.3-24.644 60.3V0C-24.644-.552-24.197-1-23.644-1H-15.198V26.779C-15.198 28.368-13.91 29.655-12.322 29.655-10.734 29.655-9.446 28.368-9.446 26.779V-1H-1C-.448-1 0-.552 0 0" fill="#ea6082"/>
<path transform="matrix(1,0,0,-1,291.9636,240.78731)" d="M0 0-19.826 34.338C-20.006 34.65-20.339 34.842-20.699 34.842H-96.269L-102.448 45.544-96.269 56.246H-83.385C-82.828 56.246-82.377 56.697-82.377 57.254V79.883C-82.377 80.44-82.828 80.891-83.385 80.891H-108.402C-108.762 80.891-109.095 80.699-109.275 80.387L-129.102 46.047C-129.281 45.735-129.281 45.352-129.102 45.04L-109.276 10.702C-109.096 10.39-108.763 10.198-108.403 10.198H-32.833L-26.654-.504-32.833-11.206H-45.716C-46.273-11.206-46.724-11.657-46.724-12.214V-34.843C-46.724-35.4-46.273-35.851-45.716-35.851H-20.699C-20.339-35.851-20.006-35.659-19.826-35.347L0-1.008C.18-.696 .18-.312 0 0M-37.361 22.52C-37.361 20.932-38.649 19.644-40.237 19.644H-88.864C-90.452 19.644-91.74 20.932-91.74 22.52-91.74 24.108-90.452 25.396-88.864 25.396H-40.237C-38.649 25.396-37.361 24.108-37.361 22.52" fill="#00a3e1"/>
<path transform="matrix(1,0,0,-1,340.2955,245.4152)" d="M0 0C.015 .274-.084 .543-.273 .742-.461 .941-.724 1.054-.999 1.054H-23.427C-23.951 1.054-24.385 .65-24.424 .129-26.624-29.229-51.242-52.226-80.466-52.226-80.487-52.226-100.561-52.227-100.561-52.227V8.074C-100.561 8.626-101.008 9.074-101.561 9.074H-110.006V-40.918C-110.006-42.506-111.294-43.794-112.882-43.794-114.47-43.794-115.758-42.506-115.758-40.918V9.074H-124.205C-124.757 9.074-125.205 8.626-125.205 8.074V-53.238C-125.205-53.323-125.194-53.406-125.173-53.487-125.148-53.59-125.106-53.689-125.049-53.781L-110.969-76.349C-110.786-76.641-110.466-76.819-110.121-76.819H-79.587C-37.227-76.333-2.285-42.615 0 0" fill="#f7ba1d"/>
<path transform="matrix(1,0,0,-1,245.4873,160.90302)" d="M0 0V-22.644C0-23.196 .448-23.644 1-23.644 1-23.644 14.797-23.643 14.817-23.642 44.085-24.113 68.453-47.436 70.31-76.77 70.343-77.296 70.78-77.707 71.308-77.707H93.84C94.113-77.707 94.374-77.595 94.563-77.397 94.751-77.2 94.851-76.934 94.839-76.661 92.891-33.701 57.829 .395 15.001 .996 14.971 .999 13.707 1.016 13.639 1H1C.448 1 0 .553 0 0" fill="#5fad48"/>
<path transform="matrix(1,0,0,-1,803.9261,238.6095)" d="M0 0V37.682L-13.365 50.143H-15.173C-17.653 50.143-19.796 49.573-21.605 48.434-23.413 47.294-24.586 45.754-25.122 43.812-27.065 48.032-31.151 50.143-37.381 50.143H-39.19C-44.349 50.143-47.397 47.998-48.334 43.711V50.143H-65.115V0H-48.032V34.567C-48.032 36.577-47.128 37.582-45.319 37.582H-43.611C-41.937 37.582-41.099 36.844-41.099 35.371V0H-24.016V34.567C-24.016 36.577-23.112 37.582-21.303 37.582H-19.595C-17.921 37.582-17.083 36.844-17.083 35.371V0ZM-67.72-50.652V-38.161C-67.72-35.348-69.227-33.941-72.239-33.941H-77.056C-80.098-33.941-81.618-35.348-81.618-38.161V-50.652C-81.618-53.466-80.098-54.872-77.056-54.872H-72.239C-69.227-54.872-67.72-53.466-67.72-50.652M-72.452-50.098C-72.452-50.553-72.538-50.859-72.708-51.014-72.878-51.171-73.206-51.249-73.688-51.249H-75.649C-76.133-51.249-76.46-51.171-76.63-51.014-76.801-50.859-76.886-50.553-76.886-50.098V-38.715C-76.886-38.261-76.801-37.956-76.63-37.799-76.46-37.643-76.133-37.564-75.649-37.564H-73.688C-73.206-37.564-72.878-37.643-72.708-37.799-72.538-37.956-72.452-38.261-72.452-38.715ZM-89.935 0H-73.154V50.143H-90.236V15.575C-90.236 13.566-91.141 12.561-92.949 12.561H-94.657C-96.333 12.561-97.17 13.297-97.17 14.771V50.143H-114.252V12.46L-100.888 0H-99.079C-93.921 0-90.874 2.143-89.935 6.431ZM-121.348-54.872H-116.488V-38.161C-116.488-35.348-117.952-33.941-120.879-33.941H-122.158C-123.778-33.941-124.787-34.58-125.185-35.859V-33.941H-129.96V-54.872H-125.142V-39.099C-125.142-38.161-124.702-37.692-123.82-37.692H-122.542C-122.087-37.692-121.774-37.771-121.604-37.927-121.433-38.083-121.348-38.389-121.348-38.843ZM-139.173 55.167H-121.487V67.225H-139.173ZM-138.871 0H-121.788V50.143H-138.871ZM-139.85-33.941H-144.368C-147.467-33.941-149.015-35.348-149.015-38.161V-50.652C-149.015-53.466-147.467-54.872-144.368-54.872H-139.935C-136.837-54.872-135.288-53.466-135.288-50.652V-48.52H-139.977V-50.098C-139.977-50.553-140.063-50.859-140.233-51.014-140.404-51.171-140.717-51.249-141.171-51.249H-143.132C-143.616-51.249-143.935-51.171-144.091-51.014-144.248-50.859-144.326-50.553-144.326-50.098V-45.792H-135.245V-38.161C-135.245-35.348-136.78-33.941-139.85-33.941M-139.892-42.68H-144.326V-38.673C-144.326-38.219-144.241-37.913-144.07-37.756-143.899-37.6-143.587-37.522-143.132-37.522H-141.086C-140.632-37.522-140.318-37.6-140.148-37.756-139.977-37.913-139.892-38.219-139.892-38.673ZM-181.175 0H-143.895V11.958H-163.188L-144.9 38.185V50.143H-179.869V38.185H-163.188L-181.175 11.958ZM-180.347-51.121C-180.803-51.121-181.115-51.043-181.285-50.887-181.456-50.731-181.541-50.425-181.541-49.97V-33.941H-186.358V-50.652C-186.358-53.466-184.909-54.872-182.01-54.872H-180.689C-179.012-54.872-178.003-54.176-177.662-52.784V-54.872H-172.887V-33.941H-177.747V-49.714C-177.747-50.652-178.188-51.121-179.069-51.121ZM-199.161 53.458-185.796 68.531H-202.879L-212.626 53.458ZM-212.124 50.142H-213.933C-222.843 50.142-227.297 45.988-227.297 37.682V12.46L-213.933 0H-212.124C-207.501 0-204.554 1.809-203.281 5.426V0H-186.198V50.142H-202.98V43.711C-203.919 47.998-206.966 50.142-212.124 50.142M-210.215 35.371C-210.215 36.844-209.378 37.582-207.703 37.582H-205.994C-204.185 37.582-203.281 36.577-203.281 34.567V15.575C-203.281 13.566-204.185 12.561-205.994 12.561H-207.703C-209.378 12.561-210.215 13.297-210.215 14.771ZM-233.464-54.872H-228.604V-38.161C-228.604-35.348-230.068-33.941-232.995-33.941H-234.274C-235.838-33.941-236.832-34.538-237.258-35.731V-26.353H-242.076V-54.872H-237.258V-39.099C-237.258-38.161-236.818-37.692-235.937-37.692H-234.658C-234.204-37.692-233.891-37.771-233.72-37.927-233.55-38.083-233.464-38.389-233.464-38.843ZM-250.911 0H-233.828V37.682C-233.828 45.988-238.284 50.143-247.193 50.143H-249.001C-254.161 50.143-257.208 47.998-258.146 43.711V50.143H-274.927V0H-257.844V34.567C-257.844 36.577-256.94 37.582-255.131 37.582H-253.423C-251.749 37.582-250.911 36.844-250.911 35.371ZM-270.254-32.577-265.437-26.736H-270.595L-274.261-32.577ZM-272.215-50.055-275.199-33.941H-280.187L-275.412-54.105H-273.11L-273.451-55.469C-273.736-56.464-274.503-56.961-275.753-56.961H-277.927V-60.67H-275.071C-271.945-60.67-270.013-59.163-269.273-56.151L-264.584-33.941H-269.444ZM-299.545 0H-282.462V37.682L-295.827 50.143H-297.636C-300.115 50.143-302.258 49.573-304.067 48.434-305.876 47.294-307.048 45.754-307.584 43.812-309.528 48.032-313.613 50.143-319.843 50.143H-321.652C-326.811 50.143-329.859 47.998-330.796 43.711V50.143H-347.577V0H-330.495V34.567C-330.495 36.577-329.591 37.582-327.782 37.582H-326.073C-324.4 37.582-323.561 36.844-323.561 35.371V0H-306.478V34.567C-306.478 36.577-305.574 37.582-303.765 37.582H-302.057C-300.383 37.582-299.545 36.844-299.545 35.371ZM-349.502-50.652V-38.161C-349.502-35.348-351.009-33.941-354.021-33.941H-358.838C-361.88-33.941-363.4-35.348-363.4-38.161V-50.652C-363.4-53.466-361.88-54.872-358.838-54.872H-354.021C-351.009-54.872-349.502-53.466-349.502-50.652M-354.234-50.098C-354.234-50.553-354.319-50.859-354.49-51.014-354.661-51.171-354.988-51.249-355.471-51.249H-357.431C-357.915-51.249-358.242-51.171-358.412-51.014-358.582-50.859-358.668-50.553-358.668-50.098V-38.715C-358.668-38.261-358.582-37.956-358.412-37.799-358.242-37.643-357.915-37.564-357.431-37.564H-355.471C-354.988-37.564-354.661-37.643-354.49-37.799-354.319-37.956-354.234-38.261-354.234-38.715ZM-364.157 1.005-351.596 50.143H-368.779L-374.205 19.595-380.335 50.143H-398.221L-384.455 4.019H-377.923C-378.594 2.01-379.398 .736-380.335 .201-381.274-.334-382.546-.603-384.153-.603H-391.589V-12.963H-383.149C-377.656-12.963-373.469-11.79-370.588-9.446-367.708-7.1-365.563-3.618-364.157 1.005M-401.235 12.46V35.673H-423.845V24.518H-418.82V13.767C-418.82 12.292-419.659 11.556-421.332 11.556H-424.95C-426.625 11.556-427.462 12.292-427.462 13.767V50.745C-427.462 52.218-426.625 52.956-424.95 52.956H-421.332C-419.659 52.956-418.82 52.218-418.82 50.745V42.405H-401.235V52.052C-401.235 60.358-406.159 64.512-416.007 64.512H-430.276L-445.047 52.052V12.46C-445.047 4.153-440.123 0-430.276 0H-416.007C-406.159 0-401.235 4.153-401.235 12.46M-594.587-37.022V-14.378C-594.587-13.826-595.035-13.378-595.587-13.378-595.587-13.378-609.384-13.379-609.405-13.38-638.673-12.909-663.04 10.414-664.897 39.747-664.931 40.274-665.367 40.684-665.895 40.684H-688.427C-688.7 40.684-688.961 40.573-689.15 40.375-689.339 40.178-689.438 39.912-689.426 39.639-687.478-3.321-652.416-37.417-609.588-38.018-609.558-38.021-608.294-38.038-608.226-38.022H-595.587C-595.035-38.022-594.587-37.575-594.587-37.022M-438.172-38.161V-41.998C-438.172-44.784-436.652-46.176-433.611-46.176H-431.309C-430.826-46.176-430.498-46.255-430.328-46.41-430.157-46.567-430.072-46.873-430.072-47.327V-50.268C-430.072-50.723-430.157-51.029-430.328-51.185-430.498-51.342-430.826-51.419-431.309-51.419H-432.161C-432.616-51.419-432.928-51.342-433.099-51.185-433.269-51.029-433.355-50.723-433.355-50.268V-48.734H-438.087V-50.652C-438.087-53.466-436.538-54.872-433.44-54.872H-429.987C-426.89-54.872-425.34-53.466-425.34-50.652V-46.943C-425.34-44.158-426.875-42.765-429.944-42.765H-432.246C-432.73-42.765-433.056-42.687-433.227-42.531-433.397-42.375-433.483-42.069-433.483-41.615V-38.545C-433.483-38.091-433.397-37.785-433.227-37.628-433.056-37.472-432.73-37.394-432.246-37.394H-431.394C-430.939-37.394-430.626-37.472-430.456-37.628-430.285-37.785-430.2-38.091-430.2-38.545V-40.122H-425.553V-38.161C-425.553-35.348-427.088-33.941-430.157-33.941H-433.525C-436.623-33.941-438.172-35.348-438.172-38.161M-416.985-33.941H-421.802L-417.496-54.872H-411.102L-406.796-33.941H-411.613L-414.299-50.354ZM-397.887-49.117H-403.08799V-54.872H-397.887ZM-378.363-27.973H-383.266V-54.873H-378.363ZM-372.778-27.973-378.149-41.359-372.821-54.872H-367.535L-373.034-41.359-367.492-27.973ZM-340.337-26.736H-345.112L-340.593-32.577H-335.605L-331.086-26.736H-335.861L-338.12-30.019ZM-344.43-38.161V-41.998C-344.43-44.784-342.909-46.176-339.868-46.176H-337.566C-337.083-46.176-336.756-46.255-336.586-46.41-336.415-46.567-336.33-46.873-336.33-47.327V-50.268C-336.33-50.723-336.415-51.029-336.586-51.185-336.756-51.342-337.083-51.419-337.566-51.419H-338.419C-338.874-51.419-339.186-51.342-339.356-51.185-339.527-51.029-339.612-50.723-339.612-50.268V-48.734H-344.344V-50.652C-344.344-53.466-342.796-54.872-339.698-54.872H-336.244C-333.147-54.872-331.598-53.466-331.598-50.652V-46.943C-331.598-44.158-333.132-42.765-336.202-42.765H-338.504C-338.987-42.765-339.314-42.687-339.484-42.531-339.655-42.375-339.74-42.069-339.74-41.615V-38.545C-339.74-38.091-339.655-37.785-339.484-37.628-339.314-37.472-338.987-37.394-338.504-37.394H-337.651C-337.197-37.394-336.884-37.472-336.713-37.628-336.543-37.785-336.458-38.091-336.458-38.545V-40.122H-331.811V-38.161C-331.811-35.348-333.346-33.941-336.415-33.941H-339.783C-342.881-33.941-344.43-35.348-344.43-38.161M-321.409-26.31H-326.482V-30.529999H-321.409ZM-321.537-33.941H-326.35398V-54.873H-321.537ZM-316.038-38.161V-50.652C-316.038-53.466-314.489-54.872-311.391-54.872H-307.214C-304.116-54.872-302.567-53.466-302.567-50.652V-47.796H-307.299V-49.97C-307.299-50.425-307.384-50.731-307.555-50.887-307.725-51.043-308.038-51.121-308.492-51.121H-310.027C-310.482-51.121-310.794-51.043-310.965-50.887-311.135-50.731-311.221-50.425-311.221-49.97V-38.843C-311.221-38.389-311.135-38.083-310.965-37.927-310.794-37.771-310.482-37.692-310.027-37.692H-308.492C-308.038-37.692-307.725-37.771-307.555-37.927-307.384-38.083-307.299-38.389-307.299-38.843V-40.975H-302.567V-38.161C-302.567-35.348-304.116-33.941-307.214-33.941H-311.391C-314.489-33.941-316.038-35.348-316.038-38.161M-292.592-26.353H-297.409V-54.873H-292.592ZM-287.647-33.941-292.208-44.002-287.689-54.872H-282.616L-287.306-44.002-282.616-33.941ZM-260.705-38.161V-50.652C-260.705-53.466-259.156-54.872-256.058-54.872H-251.88C-248.783-54.872-247.234-53.466-247.234-50.652V-47.796H-251.965V-49.97C-251.965-50.425-252.051-50.731-252.221-50.887-252.392-51.043-252.705-51.121-253.159-51.121H-254.694C-255.149-51.121-255.461-51.043-255.632-50.887-255.802-50.731-255.888-50.425-255.888-49.97V-38.843C-255.888-38.389-255.802-38.083-255.632-37.927-255.461-37.771-255.149-37.692-254.694-37.692H-253.159C-252.705-37.692-252.392-37.771-252.221-37.927-252.051-38.083-251.965-38.389-251.965-38.843V-40.975H-247.234V-38.161C-247.234-35.348-248.783-33.941-251.88-33.941H-256.058C-259.156-33.941-260.705-35.348-260.705-38.161M-209.166-33.941H-213.94V-54.872H-209.123V-39.099C-209.123-38.161-208.683-37.692-207.802-37.692H-206.523C-206.068-37.692-205.755-37.771-205.585-37.927-205.414-38.083-205.329-38.389-205.329-38.843V-54.872H-200.469V-39.099C-200.469-38.161-200.029-37.692-199.147-37.692H-197.869C-197.414-37.692-197.101-37.771-196.931-37.927-196.76-38.083-196.675-38.389-196.675-38.843V-54.872H-191.858V-38.161C-191.858-35.348-193.307-33.941-196.206-33.941H-197.528C-199.347-33.941-200.455-34.652-200.853-36.072-201.422-34.652-202.757-33.941-204.86-33.941H-206.139C-207.759-33.941-208.768-34.58-209.166-35.859ZM-162.998-26.736H-167.772L-163.253-32.577H-158.266L-153.747-26.736H-158.521L-160.781-30.019ZM-167.431-38.161V-50.652C-167.431-53.466-165.882-54.872-162.784-54.872H-158.606C-155.509-54.872-153.96-53.466-153.96-50.652V-47.796H-158.692V-49.97C-158.692-50.425-158.777-50.731-158.948-50.887-159.118-51.043-159.431-51.121-159.885-51.121H-161.42C-161.875-51.121-162.187-51.043-162.358-50.887-162.529-50.731-162.614-50.425-162.614-49.97V-38.843C-162.614-38.389-162.529-38.083-162.358-37.927-162.187-37.771-161.875-37.692-161.42-37.692H-159.885C-159.431-37.692-159.118-37.771-158.948-37.927-158.777-38.083-158.692-38.389-158.692-38.843V-40.975H-153.96V-38.161C-153.96-35.348-155.509-33.941-158.606-33.941H-162.784C-165.882-33.941-167.431-35.348-167.431-38.161M-106.556-32.577-101.739-26.736H-106.897L-110.563-32.577ZM-106.002-33.941H-110.819V-54.873H-106.002ZM-95.387-26.353H-100.204V-54.873H-95.387ZM-90.442-33.941-95.003-44.002-90.484-54.872H-85.411L-90.101-44.002-85.411-33.941ZM-59.024-33.941H-63.841L-59.536-54.872H-53.141L-48.835-33.941H-53.653L-56.338-50.354Z" fill="#29405a"/>
</g>
</svg>
