<svg xmlns="http://www.w3.org/2000/svg" viewBox="0 0 258.38 69.24"><defs><style>.cls-1{font-size:44.24px;font-family:CenturyGothic-Bold, Century Gothic;font-weight:700;}.cls-1,.cls-2{fill:#fff;}</style></defs><g id="Слой_2" data-name="Слой 2"><g id="Слой_1-2" data-name="Слой 1"><text class="cls-1" transform="translate(98.24 53.95)">EduMet</text><path class="cls-2" d="M7,25c-.4,1.79-3.21,15.3,6,27A32.81,32.81,0,0,0,35,64a32,32,0,0,0,23-8A31.71,31.71,0,0,0,68,36l-3.28-2.25L79,21V46l-5-4A34.58,34.58,0,0,1,63,61c-11.21,9.73-24.76,8.28-27,8-1.83-.12-16.12-1.29-25-14C1.5,41.4,6.49,26.46,7,25Z"/><path class="cls-2" d="M15,29A24.35,24.35,0,0,0,39,55,24.35,24.35,0,0,0,63,29L39,44Z"/><path class="cls-2" d="M0,17,39,0,78,17,39,41"/></g></g></svg>