<svg xmlns="http://www.w3.org/2000/svg" viewBox="0 0 132.83 129.5"><defs><style>.cls-1{fill:#263e75;}.cls-2{fill:#ec9121;}.cls-3{fill:#fff;stroke:#263e75;stroke-miterlimit:10;stroke-width:1.84px;}.cls-4{fill:#204f7d;}.cls-5{fill:#f9ab58;}</style></defs><g id="Слой_2" data-name="Слой 2"><g id="Слой_1-2" data-name="Слой 1"><circle class="cls-1" cx="60.14" cy="69.36" r="60.13"/><circle class="cls-2" cx="72.69" cy="60.14" r="60.13"/><circle class="cls-3" cx="66.45" cy="64.6" r="60.13"/><path class="cls-4" d="M29.55,53.78c-.45,2-3.62,17.24,6.76,30.42,9.22,11.7,22.4,13.28,24.78,13.52a36,36,0,0,0,25.92-9A35.65,35.65,0,0,0,98.27,66.17l-3.69-2.53,16.08-14.36V77.44L105,72.93A38.94,38.94,0,0,1,92.64,94.34c-12.63,11-27.89,9.32-30.42,9-2.06-.13-18.16-1.45-28.16-15.77C23.35,72.26,29,55.42,29.55,53.78Z"/><path class="cls-5" d="M38.56,58.29a27.44,27.44,0,0,0,27,29.29,27.43,27.43,0,0,0,27-29.29l-27,16.9Z"/><path class="cls-4" d="M21.66,44.77,65.6,25.62l43.94,19.15-43.94,27"/></g></g></svg>